<?xml version="1.0" standalone="no"?>
<!DOCTYPE svg PUBLIC "-//W3C//DTD SVG 20010904//EN"
 "http://www.w3.org/TR/2001/REC-SVG-20010904/DTD/svg10.dtd">
<svg version="1.0" xmlns="http://www.w3.org/2000/svg"
 width="180.000000pt" height="180.000000pt" viewBox="0 0 180.000000 180.000000"
 preserveAspectRatio="xMidYMid meet">
<metadata>
Created by potrace 1.14, written by Peter Selinger 2001-2017
</metadata>
<g transform="translate(0.000000,180.000000) scale(0.100000,-0.100000)"
fill="#000000" stroke="none">
<path d="M1035 1660 c-27 -4 -72 -11 -100 -15 -65 -10 -98 -28 -129 -68 -29
-38 -108 -206 -102 -216 8 -12 -25 -112 -35 -106 -5 4 -9 -5 -9 -19 0 -27 15
-35 23 -13 7 19 39 -4 59 -44 42 -82 3 -219 -63 -219 -5 0 -2 12 8 28 l17 27
-23 -20 -24 -20 5 20 c3 11 9 29 13 40 6 16 1 14 -24 -9 -19 -19 -28 -33 -22
-39 5 -5 7 -15 5 -22 -3 -7 8 -82 24 -166 17 -85 33 -197 36 -249 4 -52 11
-113 17 -135 5 -22 11 -49 13 -60 3 -19 33 -85 39 -85 9 0 0 50 -12 66 -11 14
-9 14 8 -3 15 -13 24 -34 25 -55 1 -25 12 -44 49 -80 27 -27 53 -48 58 -48 16
0 99 51 99 61 0 5 -9 9 -19 9 -11 0 -28 3 -38 7 -16 6 -17 5 -3 -13 14 -18 14
-18 -2 -5 -21 15 -25 65 -6 59 7 -3 19 1 26 9 7 7 25 13 38 13 14 0 33 4 42 9
23 12 112 22 112 12 0 -4 -16 -23 -36 -42 -20 -18 -45 -52 -56 -74 -37 -72
-62 -195 -39 -195 5 0 7 9 4 20 -7 26 15 115 39 164 11 22 42 63 70 92 45 48
55 54 126 69 97 22 173 50 207 77 38 30 65 93 64 153 0 40 -2 45 -9 27 -5 -12
-14 -22 -19 -22 -5 0 -16 -6 -23 -13 -40 -40 -218 -57 -370 -37 -188 25 -302
82 -322 160 -5 18 -2 16 13 -10 20 -36 95 -87 105 -71 3 5 -1 11 -9 15 -20 7
-20 65 0 73 9 3 44 -3 78 -13 84 -25 272 -23 375 4 l73 19 -2 -37 c-2 -21 3
-45 10 -54 13 -15 15 -15 31 -1 17 15 34 89 19 79 -4 -2 -9 6 -11 18 -4 27 -7
27 -113 -2 -126 -33 -262 -24 -409 29 -33 12 -72 21 -88 21 -15 0 -28 2 -28 5
0 3 19 34 41 70 48 74 79 90 165 83 30 -3 54 -2 54 1 0 3 -24 17 -53 31 -48
23 -52 28 -52 60 0 30 4 35 32 43 47 14 142 -34 161 -81 l13 -33 -47 36 c-53
40 -90 53 -106 37 -18 -18 9 -40 67 -57 55 -16 95 -46 95 -70 0 -8 4 -15 8
-15 4 0 6 16 4 35 -4 34 -3 35 31 35 43 0 56 16 33 38 -16 16 -19 16 -47 0
-29 -17 -30 -17 -39 8 -6 14 -10 27 -10 30 0 9 103 3 122 -7 18 -10 20 -9 15
5 -3 8 -2 18 3 21 6 4 11 -12 11 -37 2 -52 2 -49 -6 -69 -3 -9 0 -19 7 -21 8
-4 13 4 14 21 5 87 19 180 32 205 l14 30 24 -40 c39 -63 28 -165 -22 -219 -26
-28 -26 -28 -6 -48 19 -18 49 -16 37 4 -3 5 1 6 9 3 11 -4 22 6 37 30 11 20
23 36 26 36 2 0 1 -5 -3 -12 -5 -7 -3 -8 5 -4 7 5 10 11 7 14 -4 3 2 17 11 31
24 36 24 128 0 165 -10 15 -39 37 -63 47 -38 17 -44 24 -44 49 0 17 -9 39 -19
49 -19 19 -20 18 -87 -14 -95 -45 -117 -49 -132 -25 -11 18 -10 20 13 20 14 0
53 12 87 26 57 24 90 27 137 13 18 -5 61 57 61 88 0 50 -93 113 -171 116 -33
1 -40 5 -49 30 -5 16 -7 34 -3 40 3 5 1 7 -4 4 -6 -4 -16 6 -22 21 -30 71 -73
88 -176 72z m-19 -360 c54 -27 104 -50 111 -50 7 0 13 -7 13 -16 0 -14 -3 -14
-15 -4 -10 8 -15 9 -15 2 0 -12 -67 21 -164 81 -86 53 -44 45 70 -13z m58
-141 c8 -9 2 -10 -24 -4 -57 11 -62 11 -73 -7 -9 -13 -9 -25 0 -47 l11 -29
-41 14 c-22 8 -46 19 -54 25 -16 14 -17 66 -2 71 22 7 173 -12 183 -23z m196
-20 c0 -7 -10 -9 -25 -5 -29 7 -50 -23 -41 -60 7 -28 -10 -31 -63 -13 -25 9
-31 17 -31 39 0 22 6 31 28 38 38 14 132 15 132 1z m-391 -128 c-14 -4 -69 53
-69 71 0 7 18 -6 40 -27 24 -24 36 -41 29 -44z m-18 -144 c-10 -9 -11 -8 -5 6
3 10 9 15 12 12 3 -3 0 -11 -7 -18z m-21 -37 c-6 -11 -13 -20 -16 -20 -2 0 0
9 6 20 6 11 13 20 16 20 2 0 0 -9 -6 -20z m-27 -50 c-5 -19 -23 -39 -23 -25 0
9 20 45 24 45 2 0 2 -9 -1 -20z m694 -252 c-3 -8 -6 -5 -6 6 -1 11 2 17 5 13
3 -3 4 -12 1 -19z"/>
<path d="M463 1311 c-36 -22 -57 -56 -47 -73 5 -7 3 -8 -6 -3 -10 6 -12 4 -7
-9 4 -9 3 -15 -2 -12 -11 7 -31 -47 -31 -81 0 -35 37 -106 73 -141 26 -25 153
-79 163 -70 1 2 0 16 -3 31 -5 24 -10 28 -31 24 -32 -6 -67 30 -75 78 -11 66
39 175 80 175 7 0 13 8 13 19 0 10 3 31 6 47 5 29 5 29 -48 32 -39 2 -62 -3
-85 -17z m64 -7 c-3 -3 -12 -4 -19 -1 -8 3 -5 6 6 6 11 1 17 -2 13 -5z m-38
-7 c-2 -1 -13 -9 -24 -17 -19 -14 -19 -14 -6 3 7 9 18 17 24 17 6 0 8 -1 6 -3z"/>
<path d="M630 751 c0 -24 -42 -75 -80 -98 -29 -17 -47 -69 -26 -76 8 -3 8 -11
0 -28 -6 -13 -7 -35 -3 -49 4 -14 7 -42 8 -63 1 -34 3 -37 21 -27 11 6 20 18
20 27 0 15 2 15 18 0 23 -21 52 -22 52 -2 0 8 5 15 10 15 6 0 10 -11 10 -25 0
-26 -23 -42 -94 -65 -47 -15 -55 -6 -48 56 3 27 0 50 -8 58 -6 9 -9 19 -6 24
6 10 -59 44 -67 35 -3 -3 -25 -6 -49 -7 -49 -3 -139 -43 -146 -66 -4 -13 -3
-13 14 0 48 40 144 64 158 41 6 -8 -30 -25 -48 -22 -5 1 -17 -6 -27 -15 -11
-9 -19 -14 -19 -9 0 4 -7 2 -15 -5 -8 -7 -15 -23 -15 -36 0 -13 -4 -24 -10
-24 -5 0 -10 6 -10 13 0 17 -30 -42 -31 -62 -1 -9 -4 -5 -9 9 -7 23 -8 21 -20
-22 -7 -27 -16 -48 -21 -48 -5 0 -9 4 -9 9 0 5 -10 12 -22 14 l-23 4 23 2 c28
1 40 28 21 46 -12 12 -19 8 -48 -27 -26 -30 -38 -58 -47 -105 -6 -34 -8 -63
-4 -63 13 0 40 37 40 56 0 15 7 19 31 19 31 0 31 0 24 -45 -3 -25 -15 -63 -26
-84 -11 -22 -18 -48 -16 -58 3 -10 -1 -25 -10 -33 -13 -13 5 -15 156 -14 l170
0 -9 25 c-5 13 -8 38 -6 54 4 32 -8 40 -22 15 -7 -13 -14 -14 -36 -5 -34 13
-150 13 -194 1 l-32 -10 22 32 c13 18 21 33 19 35 -1 1 0 29 4 63 6 48 12 63
31 76 13 8 24 25 25 37 0 21 0 21 11 -1 17 -35 24 -28 21 20 -3 34 -1 38 7 20
13 -30 28 -29 36 2 10 40 19 19 19 -43 0 -46 3 -56 15 -53 29 7 84 1 90 -9 4
-6 15 -8 24 -4 16 6 17 5 5 -15 -8 -12 -20 -19 -27 -16 -8 3 -28 5 -45 5 -30
1 -31 1 -13 15 16 12 17 15 4 15 -20 0 -42 -26 -33 -40 4 -6 1 -9 -7 -8 -7 2
-14 -6 -16 -17 -4 -26 32 -31 64 -10 26 17 61 9 67 -14 3 -9 5 -1 6 17 1 20 6
32 15 32 24 0 46 30 46 61 0 18 6 32 16 36 20 7 34 -13 34 -51 0 -16 3 -26 7
-22 4 4 6 23 4 42 -1 19 2 34 8 34 6 0 11 -9 11 -20 0 -34 21 -120 30 -120 5
0 10 10 12 23 3 17 11 8 35 -43 28 -59 30 -65 13 -68 -10 -2 -26 -13 -36 -24
-11 -12 -13 -18 -6 -14 8 5 12 1 12 -11 0 -28 20 -43 58 -43 35 0 71 30 72 60
0 8 5 22 10 30 7 10 8 -1 4 -37 -5 -45 -3 -53 10 -53 13 0 16 11 16 56 0 39 5
60 15 68 13 9 7 17 -32 50 -45 35 -48 37 -51 17 -2 -12 -7 -19 -12 -16 -4 3
-6 13 -3 24 2 10 -9 43 -26 72 -35 63 -56 156 -66 289 -8 114 -24 210 -36 210
-5 0 -9 -9 -9 -19z m-170 -246 c7 -9 10 -18 7 -22 -8 -7 -37 15 -37 28 0 14
16 11 30 -6z m-12 -131 c-3 -14 -5 -12 -10 9 -3 19 -2 25 4 19 6 -6 8 -18 6
-28z m-68 -64 c0 -11 -7 -20 -15 -20 -15 0 -21 21 -8 33 12 13 23 7 23 -13z
m128 -15 c-3 -33 -16 -33 -14 0 0 14 4 25 8 25 4 0 7 -11 6 -25z"/>
<path d="M1335 610 c-3 -5 -2 -10 4 -10 5 0 13 5 16 10 3 6 2 10 -4 10 -5 0
-13 -4 -16 -10z"/>
<path d="M980 600 c0 -7 24 -20 36 -20 13 0 1 19 -16 23 -11 3 -20 2 -20 -3z"/>
<path d="M1176 593 c-9 -22 3 -36 20 -22 18 15 18 25 0 32 -8 3 -17 -1 -20
-10z"/>
<path d="M413 573 c9 -2 25 -2 35 0 9 3 1 5 -18 5 -19 0 -27 -2 -17 -5z"/>
<path d="M304 548 l-19 -23 23 19 c21 18 27 26 19 26 -2 0 -12 -10 -23 -22z"/>
<path d="M1084 288 l-19 -23 23 19 c21 18 27 26 19 26 -2 0 -12 -10 -23 -22z"/>
<path d="M61 263 c-6 -15 -22 -48 -36 -72 -28 -50 -31 -77 -12 -114 l13 -25
13 42 c14 44 41 189 36 194 -1 2 -8 -10 -14 -25z"/>
<path d="M452 118 c-5 -18 -8 -34 -7 -36 5 -6 35 11 35 20 0 5 -5 6 -11 2 -8
-5 -8 -1 0 14 14 25 14 32 1 32 -5 0 -13 -15 -18 -32z"/>
<path d="M440 57 c0 -7 14 -23 30 -35 35 -26 39 -16 9 22 -22 28 -39 34 -39
13z"/>
</g>
</svg>
